<?xml version="1.0" encoding="utf-8"?>
<!-- Generator: Adobe Illustrator 27.1.0, SVG Export Plug-In . SVG Version: 6.00 Build 0)  -->
<svg version="1.1" id="Camada_1" xmlns="http://www.w3.org/2000/svg" xmlns:xlink="http://www.w3.org/1999/xlink" x="0px" y="0px"
	 viewBox="0 0 100 74.6" style="enable-background:new 0 0 100 74.6;" xml:space="preserve">
<style type="text/css">
	.st0{fill:#FFFFFF;}
</style>
<image style="overflow:visible;opacity:0.58;enable-background:new    ;" width="544" height="363" xlink:href="4F7EEDC3.jpeg"  transform="matrix(2.9936 0 0 2.9936 -3871.5527 311.9596)">
</image>
<g>
	<path d="M-687.4,302.9c67.4-29.9,114.4-97.3,114.4-175.8c0-97.9-73.2-178.7-167.8-190.7c-8-1-16.1-1.5-24.4-1.5h-290.2v175.7
		l78.6,78.6h0l235.9,235.9l21.8,21.8h175.7L-687.4,302.9z M-740.9,184.3c-7.5,3.2-15.7,5-24.4,5h-35.8L-925.3,65h160.1
		c8.7,0,16.9,1.8,24.4,5c22.2,9.5,37.8,31.5,37.8,57.2S-718.7,174.8-740.9,184.3z"/>
	<polygon points="-894.8,447 -1055.4,447 -1055.4,286.4 	"/>
</g>
<g>
	<polygon class="st0" points="65.7,74.6 31.4,74.6 0,43.2 0,8.9 	"/>
	<path class="st0" d="M100,38.3v36.3L71.9,46.5c8.1-3.6,14.6-9.9,18.5-17.8L100,38.3z"/>
	<path class="st0" d="M68.8,0v5.1c0,10.6-8.6,19.1-19.1,19.1l0,0L25.4,0H68.8z"/>
</g>
<g>
	<polygon points="-192.6,381.9 -368.4,381.9 -528.9,221.3 -528.9,45.6 	"/>
	<path d="M-16.9,196.1v185.8l-144-144c41.3-18.3,74.9-50.7,94.7-91.1L-16.9,196.1z"/>
	<path d="M-176.7,0v26.3c0,54.1-43.8,97.9-97.9,97.9l0,0L-398.9,0H-176.7z"/>
</g>
</svg>
